:SAMPLES-PER-SECOND 30
:FRAME-RANGE 1-2009
:FULLY-SPECIFIED
:DEGREES
817
root  6.9408 37.8548 -12.8791 -21.2402 82.2146 -16.6171
RightUpLeg  -20.7227 -2.38432 7.42953
RightLeg  15.0524 -14.2176 -2.74299
RightFoot  6.5684 0.821361 -4.92041
RightToes  4.71047e-010 1.2921e-014 -6.02303e-014
Spine  5.31845 -6.012 -2.29119
Spine1  0.689287 -8.453 10.8428
HEad  13.5563 12.465 -6.30076
LeftShoulder1  2.34253 -2.34608 -34.0086
LeftArm  15.4534 -26.1057 -42.5335
LeftForeArm  34.6652 -5.73554 -15.899
LeftHand  -0.466619 -2.29275 7.25657
RightShoulder  2.3 0.577684 49.5259
RightArm  30.6983 -6.33487 13.7708
RightForeArm  6.57107 7.68101 16.5066
RightHand  0.244479 -1.40175 7.42222
LeftUpLeg  19.239 17.0626 1.73305
LeftLeg  20.1436 -8.89112 -3.27054
LeftFoot  -21.5181 0.0201866 -1.22327
LeftToes  2.15783e-011 -7.56106e-012 -8.20802e-012
818
root  8.35129 37.6733 -12.7209 -24.6561 80.8524 -19.9457
RightUpLeg  -21.7609 -1.36656 9.446
RightLeg  21.8519 -13.2801 -6.0026
RightFoot  3.30473 0.694216 -5.21896
RightToes  4.71047e-010 1.2921e-014 -6.02303e-014
Spine  6.27055 -6.07928 -1.19293
Spine1  -0.187297 -8.3122 11.6469
HEad  13.7207 13.641 -6.70882
LeftShoulder1  2.44829 -2.58883 -34.1501
LeftArm  10.0087 -30.6577 -46.62
LeftForeArm  37.3678 -3.94833 -15.977
LeftHand  -0.486995 -1.59112 8.27006
RightShoulder  3.95983 3.58134 49.0096
RightArm  24.2479 -3.7146 13.9861
RightForeArm  6.76662 7.9827 15.876
RightHand  0.179038 -1.72902 6.06141
LeftUpLeg  15.9495 19.0351 5.08054
LeftLeg  32.0315 -9.90166 -6.27785
LeftFoot  -17.0813 -0.295289 -7.91975
LeftToes  2.15783e-011 -7.56106e-012 -8.20802e-012
819
root  9.54793 37.4844 -12.5032 -31.9426 80.7232 -27.5468
RightUpLeg  -22.4065 0.254649 10.6637
RightLeg  26.8318 -14.7816 -8.20952
RightFoot  -0.0873076 0.55073 -5.5867
RightToes  4.71047e-010 1.2921e-014 -6.02303e-014
Spine  6.93189 -6.78383 -1.1167
Spine1  -0.118863 -9.1163 13.7287
HEad  13.4054 14.5339 -6.4278
LeftShoulder1  2.53503 -3.11115 -32.3054
LeftArm  5.51149 -35.0597 -51.0393
LeftForeArm  39.6148 -3.09948 -15.6654
LeftHand  -0.52002 -1.14792 9.38145
RightShoulder  4.98683 5.55607 48.2414
RightArm  22.5868 -0.983927 15.2581
RightForeArm  3.45454 11.1437 13.996
RightHand  0.107201 -2.38866 4.7486
LeftUpLeg  9.02302 17.1003 7.16183
LeftLeg  45.8281 -8.8685 -9.26055
LeftFoot  -6.6561 0.668417 -15.2922
LeftToes  2.15783e-011 -7.56106e-012 -8.20802e-012
820
root  10.5986 37.2057 -12.3747 -40.436 80.2794 -36.5656
RightUpLeg  -23.255 -0.281396 12.2791
RightLeg  31.1901 -14.2914 -9.40722
RightFoot  -3.69422 0.301025 -4.87207
RightToes  4.71047e-010 1.2921e-014 -6.02303e-014
Spine  7.36924 -7.38028 0.654048
Spine1  0.206331 -9.42276 14.5387
HEad  13.0832 14.4533 -5.75257
LeftShoulder1  2.57796 -3.64596 -30.0269
LeftArm  2.39081 -40.1578 -55.5326
LeftForeArm  41.7386 -2.73085 -15.269
LeftHand  -0.508469 -0.708879 9.80004
RightShoulder  5.34281 6.26856 47.9083
RightArm  26.202 1.13758 16.6758
RightForeArm  -4.01837 17.4465 9.45993
RightHand  0.126974 -2.28389 5.31393
LeftUpLeg  0.652117 13.9022 8.58483
LeftLeg  58.1976 -7.19612 -11.8319
LeftFoot  7.29669 2.91633 -17.9191
LeftToes  2.15783e-011 -7.56106e-012 -8.20802e-012
821
root  11.6732 37.0745 -12.2837 -38.7214 78.3157 -34.8833
RightUpLeg  -22.4538 0.344169 13.4425
RightLeg  33.5444 -13.1804 -9.50422
RightFoot  -6.49724 0.116833 -3.79797
RightToes  4.71047e-010 1.2921e-014 -6.02303e-014
Spine  8.01234 -7.08786 2.61595
Spine1  0.280462 -8.6157 14.2385
HEad  12.7488 14.5745 -5.05661
LeftShoulder1  2.53353 -3.64095 -29.42
LeftArm  4.20991 -45.398 -58.0589
LeftForeArm  39.9008 -4.11012 -15.0147
LeftHand  -0.488934 -0.290066 10.0864
RightShoulder  6.02487 7.42455 48.3062
RightArm  27.1478 2.35174 16.9112
RightForeArm  -8.60526 23.6262 5.49508
RightHand  0.118455 -2.16154 4.77028
LeftUpLeg  -5.42525 12.9107 9.78074
LeftLeg  66.4322 -5.31157 -12.5189
LeftFoot  10.9591 3.55859 -18.2646
LeftToes  2.15783e-011 -7.56106e-012 -8.20802e-012
822
root  12.919 37.3194 -12.1954 -31.9017 76.2892 -27.7048
RightUpLeg  -19.5739 1.67125 13.2724
RightLeg  33.237 -12.3428 -8.84125
RightFoot  -8.35302 0.0251174 -3.12694
RightToes  4.71047e-010 1.2921e-014 -6.02303e-014
Spine  8.28739 -6.62289 2.82766
Spine1  0.135464 -7.93447 13.6437
HEad  12.7386 15.6424 -4.67654
LeftShoulder1  2.48621 -3.50232 -29.4457
LeftArm  6.19433 -49.0703 -58.409
LeftForeArm  36.9411 -6.70797 -14.2765
LeftHand  -0.470636 0.0278241 10.259
RightShoulder  7.10722 9.29447 48.6506
RightArm  21.5629 3.28141 16.9547
RightForeArm  -3.26492 28.0294 6.22957
RightHand  0.152999 -1.85979 5.44811
LeftUpLeg  -10.184 12.57 9.83527
LeftLeg  71.001 -3.56457 -10.6542
LeftFoot  6.59315 2.34987 -15.0749
LeftToes  2.15783e-011 -7.56106e-012 -8.20802e-012
823
root  14.1761 37.6226 -12.1324 -25.4314 74.0311 -21.2694
RightUpLeg  -16.7748 3.5696 12.6899
RightLeg  32.1713 -11.6489 -8.05927
RightFoot  -9.77554 -0.032824 -2.43565
RightToes  4.71047e-010 1.2921e-014 -6.02303e-014
Spine  8.20318 -6.15636 2.80786
Spine1  -0.519622 -7.33481 13.2128
HEad  13.3714 17.2729 -4.66286
LeftShoulder1  2.41107 -3.45852 -28.5711
LeftArm  8.6041 -50.3996 -58.6549
LeftForeArm  34.021 -10.2157 -12.7882
LeftHand  -0.485177 0.142757 10.7959
RightShoulder  7.7314 10.4405 48.5667
RightArm  19.9606 4.24596 17.6309
RightForeArm  1.22339 31.7794 6.9267
RightHand  0.133211 -1.77249 4.65404
LeftUpLeg  -14.7339 12.052 9.60903
LeftLeg  72.1838 -2.48363 -7.7807
LeftFoot  4.93527 1.83096 -12.9699
LeftToes  2.15783e-011 -7.56106e-012 -8.20802e-012
824
root  15.4661 37.9949 -12.1035 -20.2378 71.5149 -15.9458
RightUpLeg  -13.4659 4.5922 11.7648
RightLeg  30.211 -10.0407 -6.54633
RightFoot  -10.7931 -0.0629499 -2.10041
RightToes  4.71047e-010 1.2921e-014 -6.02303e-014
Spine  8.27987 -5.6308 3.0088
Spine1  -1.54928 -6.6137 12.3531
HEad  14.0283 18.8313 -4.79313
LeftShoulder1  2.32697 -3.36186 -27.8135
LeftArm  13.1496 -50.7146 -58.903
LeftForeArm  29.4692 -13.9216 -10.7492
LeftHand  -0.487431 0.378253 11.334
RightShoulder  7.88275 10.8232 48.1896
RightArm  19.2636 4.60412 18.7395
RightForeArm  6.10043 35.5831 7.67896
RightHand  0.128797 -1.84333 4.61591
LeftUpLeg  -18.0997 11.2004 9.50836
LeftLeg  70.2844 -1.97658 -5.33277
LeftFoot  2.40314 1.29753 -10.8631
LeftToes  2.15783e-011 -7.56106e-012 -8.20802e-012
825
root  16.7782 38.3664 -12.077 -16.3007 69.2646 -11.8948
RightUpLeg  -10.0745 4.24968 10.5296
RightLeg  27.7903 -7.43347 -4.80269
RightFoot  -11.6663 -0.0840266 -1.80483
RightToes  4.71047e-010 1.2921e-014 -6.02303e-014
Spine  8.00514 -5.18443 3.11945
Spine1  -2.25867 -6.04089 11.3199
HEad  14.5008 20.0425 -4.8925
LeftShoulder1  2.25882 -3.17752 -27.7245
LeftArm  19.2067 -50.34 -58.8907
LeftForeArm  24.4817 -17.6495 -8.03862
LeftHand  -0.49433 0.24241 11.2027
RightShoulder  7.96171 11.031 47.9726
RightArm  19.297 4.07074 19.3238
RightForeArm  9.49622 39.6125 8.6773
RightHand  0.162978 -1.77522 5.62687
LeftUpLeg  -20.4661 9.90591 9.65953
LeftLeg  65.6702 -1.6251 -3.27941
LeftFoot  -0.247376 0.88679 -9.10366
LeftToes  2.15783e-011 -7.56106e-012 -8.20802e-012
826
root  18.0401 38.6942 -12.0291 -13.0782 66.6909 -8.75671
RightUpLeg  -6.83139 3.73136 9.39426
RightLeg  24.9727 -4.37558 -3.45443
RightFoot  -12.2529 -0.0961048 -1.66324
RightToes  4.71047e-010 1.2921e-014 -6.02303e-014
Spine  7.52321 -4.44906 2.75174
Spine1  -2.73979 -5.36363 10.7256
HEad  14.446 20.8991 -4.96816
LeftShoulder1  2.21757 -3.01955 -27.9149
LeftArm  25.0242 -49.2718 -58.9554
LeftForeArm  21.0778 -20.7374 -5.46754
LeftHand  -0.517795 0.253185 11.7562
RightShoulder  7.9614 11.096 47.7537
RightArm  20.2818 3.21445 19.4762
RightForeArm  10.818 43.0114 9.72962
RightHand  0.153615 -2.08743 5.90116
LeftUpLeg  -21.6804 9.15189 10.4781
LeftLeg  58.4428 -1.25985 -1.69702
LeftFoot  -2.06161 0.699924 -8.46222
LeftToes  2.15783e-011 -7.56106e-012 -8.20802e-012
827
root  19.269 38.9664 -11.9725 -10.8215 64.2007 -6.85718
RightUpLeg  -3.97564 2.59489 8.27604
RightLeg  22.1041 -0.814818 -2.31
RightFoot  -12.6519 -0.109688 -2.11032
RightToes  4.71047e-010 1.2921e-014 -6.02303e-014
Spine  6.78812 -3.83628 2.39391
Spine1  -2.98919 -4.84156 10.0429
HEad  14.2243 21.6577 -4.64008
LeftShoulder1  2.15814 -2.86007 -27.8293
LeftArm  26.7776 -47.1913 -58.8444
LeftForeArm  21.6459 -23.1913 -3.98499
LeftHand  -0.516832 0.196773 11.612
RightShoulder  7.86695 10.9499 47.6638
RightArm  21.9021 2.2787 19.5542
RightForeArm  11.7661 45.0783 10.4251
RightHand  0.157188 -2.25075 6.38564
LeftUpLeg  -21.6204 8.67047 11.9014
LeftLeg  48.5075 -1.752 -1.70917
LeftFoot  -2.86404 0.615228 -8.06132
LeftToes  2.15783e-011 -7.56106e-012 -8.20802e-012
828
root  20.4485 39.1846 -11.9242 -9.31009 61.8532 -5.67274
RightUpLeg  -1.15316 1.46235 7.07926
RightLeg  19.1362 2.67212 -1.45401
RightFoot  -12.9242 -0.116401 -2.09991
RightToes  4.71047e-010 1.2921e-014 -6.02303e-014
Spine  6.40219 -3.67011 2.59762
Spine1  -3.38234 -4.527 8.09476
HEad  13.8705 22.7328 -3.78623
LeftShoulder1  2.05942 -2.60376 -27.6282
LeftArm  23.5951 -44.0363 -57.6797
LeftForeArm  26.0773 -25.8089 -4.14762
LeftHand  -0.55549 -0.101706 11.8235
RightShoulder  7.92706 10.8262 48.4527
RightArm  24.0895 1.44544 19.5121
RightForeArm  12.1828 45.1804 10.4346
RightHand  0.127367 -2.27021 5.30193
LeftUpLeg  -19.8997 7.54466 13.5849
LeftLeg  36.0673 -4.05716 -2.82263
LeftFoot  -2.61826 0.598327 -7.63235
LeftToes  2.15783e-011 -7.56106e-012 -8.20802e-012
829
root  21.642 39.3047 -11.9062 -8.58007 59.6294 -4.94171
RightUpLeg  1.63825 0.567593 5.8067
RightLeg  16.884 5.91058 -0.936857
RightFoot  -13.5217 -0.125123 -1.77005
RightToes  4.71047e-010 1.2921e-014 -6.02303e-014
Spine  6.06205 -3.411 2.15441
Spine1  -2.98548 -4.30646 7.34426
HEad  13.2376 23.6308 -3.47958
LeftShoulder1  1.99112 -2.27839 -28.3609
LeftArm  20.0886 -40.6232 -55.8723
LeftForeArm  30.863 -28.2875 -4.43573
LeftHand  -0.578104 -0.412805 11.6673
RightShoulder  7.8428 10.6721 48.4595
RightArm  26.4046 0.704432 19.7344
RightForeArm  11.9421 43.48 9.82014
RightHand  0.161533 -1.98466 5.97234
LeftUpLeg  -16.8638 4.55819 15.4105
LeftLeg  23.5476 -7.25884 -3.13761
LeftFoot  -2.42145 0.680269 -8.5255
LeftToes  2.15783e-011 -7.56106e-012 -8.20802e-012
830
root  22.8418 39.3321 -11.9302 -8.1338 57.4282 -4.5482
RightUpLeg  3.91039 0.546109 4.69956
RightLeg  15.4599 8.32552 -0.917297
RightFoot  -14.5152 -0.126654 -1.02792
RightToes  4.71047e-010 1.2921e-014 -6.02303e-014
Spine  5.53539 -3.1797 1.8816
Spine1  -2.34326 -4.05101 6.46172
HEad  12.6372 24.2986 -3.09964
LeftShoulder1  1.92895 -2.04692 -28.6822
LeftArm  16.5507 -36.3105 -53.8471
LeftForeArm  34.1721 -31.1001 -4.89873
LeftHand  -0.55571 -0.535105 10.9984
RightShoulder  7.75721 10.3942 48.8931
RightArm  29.4186 0.250969 19.3977
RightForeArm  10.176 39.8674 8.71478
RightHand  0.186367 -1.56248 5.98797
LeftUpLeg  -13.9007 1.34749 16.9259
LeftLeg  13.4583 -8.61881 -1.97936
LeftFoot  -2.98134 0.634903 -8.43307
LeftToes  2.15783e-011 -7.56106e-012 -8.20802e-012
831
root  24.1104 39.2336 -12.0245 -7.54904 55.4594 -4.16032
RightUpLeg  5.24024 2.94651 3.96964
RightLeg  15.6629 8.19592 -1.49869
RightFoot  -16.3259 -0.095103 0.352991
RightToes  4.71047e-010 1.2921e-014 -6.02303e-014
Spine  4.73207 -2.79035 0.870751
Spine1  -1.47611 -3.87756 6.99523
HEad  12.5442 24.7136 -3.32055
LeftShoulder1  1.91537 -1.8486 -29.7342
LeftArm  14.634 -32.0532 -51.745
LeftForeArm  35.8811 -32.7613 -5.19963
LeftHand  -0.534517 -0.853109 10.0698
RightShoulder  7.33334 9.76118 48.4283
RightArm  33.2972 0.0186121 19.3963
RightForeArm  6.75735 34.5064 7.3394
RightHand  0.215049 -1.16838 6.15244
LeftUpLeg  -12.1146 6.34214 16.0985
LeftLeg  8.14521 -10.7005 -0.305574
LeftFoot  -2.92988 0.802426 -10.6512
LeftToes  2.15783e-011 -7.56106e-012 -8.20802e-012
